HIERARCHY
ROOT Hips
{
    OFFSET 0.000000 0.000000 0.000000
    CHANNELS 6 Xposition Yposition Zposition Zrotation Xrotation Yrotation
    JOINT Spine
    {
        OFFSET -0.000000 14.517291 0.000000
        CHANNELS 3 Zrotation Xrotation Yrotation
        JOINT Spine1
        {
            OFFSET -0.000000 37.558300 0.000000
            CHANNELS 3 Zrotation Xrotation Yrotation
            JOINT Neck
            {
                OFFSET -0.000000 37.404057 3.400369
                CHANNELS 3 Zrotation Xrotation Yrotation
                JOINT Head
                {
                    OFFSET -0.000000 24.785618 -3.540803
                    CHANNELS 3 Zrotation Xrotation Yrotation
                    End Site
                    {
                        OFFSET -0.000000 35.408028 0.000000
                    }
                }
            }
            JOINT LeftShoulder
            {
                OFFSET 6.992933 33.973492 -0.192664
                CHANNELS 3 Zrotation Xrotation Yrotation
                JOINT LeftArm
                {
                    OFFSET 21.527611 0.000000 0.000000
                    CHANNELS 3 Zrotation Xrotation Yrotation
                    JOINT LeftForeArm
                    {
                        OFFSET 56.353916 0.000000 0.000000
                        CHANNELS 3 Zrotation Xrotation Yrotation
                        JOINT LeftHand
                        {
                            OFFSET 47.774071 0.000000 0.000000
                            CHANNELS 3 Zrotation Xrotation Yrotation
                            End Site
                            {
                                OFFSET 26.556021 0.000000 0.000000
                            }
                        }
                    }
                }
            }
            JOINT RightShoulder
            {
                OFFSET -7.065357 33.973492 -0.192664
                CHANNELS 3 Zrotation Xrotation Yrotation
                JOINT RightArm
                {
                    OFFSET -21.527611 0.000000 0.000000
                    CHANNELS 3 Zrotation Xrotation Yrotation
                    JOINT RightForeArm
                    {
                        OFFSET -56.353916 0.000000 0.000000
                        CHANNELS 3 Zrotation Xrotation Yrotation
                        JOINT RightHand
                        {
                            OFFSET -47.774071 0.000000 0.000000
                            CHANNELS 3 Zrotation Xrotation Yrotation
                            End Site
                            {
                                OFFSET -26.556021 0.000000 0.000000
                            }
                        }
                    }
                }
            }
        }
    }
    JOINT LeftUpLeg
    {
        OFFSET 17.704014 0.000000 0.000000
        CHANNELS 3 Zrotation Xrotation Yrotation
        JOINT LeftLeg
        {
            OFFSET -0.000000 -81.181816 0.000000
            CHANNELS 3 Zrotation Xrotation Yrotation
            JOINT LeftFoot
            {
                OFFSET -0.000000 -62.821102 0.000000
                CHANNELS 3 Zrotation Xrotation Yrotation
                JOINT LeftToeBase
                {
                    OFFSET -0.000000 -11.507608 26.556021
                    CHANNELS 3 Zrotation Xrotation Yrotation
                    End Site
                    {
                        OFFSET -0.000000 0.000000 7.081605
                    }
                }
            }
        }
    }
    JOINT RightUpLeg
    {
        OFFSET -17.704014 0.000000 0.000000
        CHANNELS 3 Zrotation Xrotation Yrotation
        JOINT RightLeg
        {
            OFFSET -0.000000 -81.181816 0.000000
            CHANNELS 3 Zrotation Xrotation Yrotation
            JOINT RightFoot
            {
                OFFSET -0.000000 -62.821102 0.000000
                CHANNELS 3 Zrotation Xrotation Yrotation
                JOINT RightToeBase
                {
                    OFFSET -0.000000 -11.507608 26.556021
                    CHANNELS 3 Zrotation Xrotation Yrotation
                    End Site
                    {
                        OFFSET -0.000000 0.000000 7.081605
                    }
                }
            }
        }
    }
}
MOTION
Frames:    13
Frame Time:    0.008333
15.637600    157.237015    -92.772705    -1.855336    -2.603940    30.951303    -1.989988    -3.322311    -5.895263    1.610436    -0.905965    -1.934591    18.217186    -12.933100    0.264471    4.665706    17.642025    -4.608084    14.581977    0.602780    -29.689457    -21.857357    19.843321    -78.454605    -11.907234    -10.545477    -80.651146    16.304976    -20.881540    -4.071785    -15.164939    -12.302893    -4.159447    26.676210    -29.187723    73.384163    -3.604087    -13.415496    23.822895    -0.938731    -12.924156    30.476648    13.096288    5.719896    2.853581    -9.101971    26.110149    -16.947878    2.090749    -26.949614    42.230412    0.000000    0.000000    0.000000    -15.332127    -19.491602    -4.862919    9.286837    20.922565    -10.269421    2.699577    8.926965    -17.084366    0.000000    0.000000    0.000000    
15.290681    157.332687    -92.771896    -2.018473    -2.648175    31.081924    -1.981913    -3.222842    -5.795218    1.103260    -1.021217    -1.904399    18.186504    -12.959513    0.147553    4.863879    17.458284    -4.720290    14.629438    0.653027    -29.545671    -22.113016    19.778770    -78.273705    -12.058740    -10.163421    -80.721786    16.320070    -20.672941    -4.215814    -15.156689    -12.361475    -4.179839    26.535477    -29.059769    73.347397    -3.721671    -13.403575    23.737051    -0.897304    -12.880810    30.595648    13.378268    5.616365    2.782492    -9.070339    25.969301    -16.925385    1.918132    -26.852547    42.136993    0.000000    0.000000    0.000000    -15.033875    -19.445784    -4.836618    9.209098    20.669184    -10.312640    2.690957    9.107341    -17.163389    0.000000    0.000000    0.000000    
14.929443    157.441772    -92.756294    -2.202098    -2.703471    31.234045    -2.060255    -3.105571    -5.700414    0.715878    -1.111759    -1.875024    18.291145    -13.032417    0.052283    4.897885    17.285536    -4.852116    14.752994    0.639563    -29.378748    -22.483788    19.707952    -78.170616    -12.301370    -9.747513    -80.741730    16.345531    -20.476917    -4.201236    -15.129596    -12.482446    -4.256382    26.379807    -28.962091    73.295746    -3.741380    -13.393255    23.680342    -0.723991    -12.822561    30.664267    13.700523    5.487053    2.705024    -9.030928    25.889515    -17.294846    1.893321    -26.758369    42.416126    0.000000    0.000000    0.000000    -14.646983    -19.436890    -4.860509    8.970042    20.497591    -10.427578    2.701431    9.326854    -17.098614    0.000000    0.000000    0.000000    
14.581661    157.543091    -92.736855    -2.367412    -2.780099    31.389307    -2.142028    -2.983552    -5.580027    0.419376    -1.242408    -1.837265    18.128456    -13.016987    -0.134034    5.119831    17.085762    -4.992818    14.700665    0.690716    -29.337605    -22.710648    19.647495    -77.952003    -12.500387    -9.424499    -80.803200    16.447884    -20.355879    -4.272198    -15.200387    -12.392934    -4.293840    26.192696    -28.949972    73.267860    -3.854502    -13.428696    23.611994    -0.691112    -12.828876    30.720903    14.014570    5.401671    2.665130    -8.994907    25.760521    -17.312408    1.729722    -26.648340    42.321949    0.000000    0.000000    0.000000    -14.325952    -19.354116    -4.745373    8.919394    20.226913    -10.547801    2.697314    9.514743    -17.213112    0.000000    0.000000    0.000000    
14.234203    157.639236    -92.716309    -2.540527    -2.846737    31.558102    -2.202607    -2.865224    -5.459755    0.018752    -1.381258    -1.803311    18.105019    -13.004637    -0.295492    5.330712    16.885284    -5.144748    14.748506    0.745642    -29.311920    -23.001701    19.542439    -77.759201    -12.740308    -9.015302    -80.778625    16.515339    -20.173891    -4.370481    -15.127487    -12.419340    -4.318818    25.970392    -28.894657    73.169174    -3.890223    -13.465700    23.570383    -0.554502    -12.823957    30.807924    14.332361    5.298510    2.629749    -8.949043    25.637999    -17.360376    1.567738    -26.541273    42.215466    0.000000    0.000000    0.000000    -14.012078    -19.301107    -4.643233    8.863911    20.013836    -10.419122    2.734944    9.659820    -17.553295    0.000000    0.000000    0.000000    
13.908360    157.738129    -92.690636    -2.697031    -2.928019    31.737911    -2.275206    -2.766501    -5.354027    -0.286061    -1.469932    -1.772094    17.875504    -12.955914    -0.483505    5.657906    16.616648    -5.259346    14.668759    0.771363    -29.273746    -23.167744    19.508249    -77.535042    -12.912174    -8.702869    -80.860680    16.610964    -20.032383    -4.344364    -15.226705    -12.400602    -4.329693    25.860111    -28.893520    73.115501    -3.936289    -13.474497    23.497538    -0.523851    -12.817754    30.819794    14.629478    5.207097    2.575276    -8.884805    25.528091    -17.403200    1.371588    -26.452576    42.120239    0.000000    0.000000    0.000000    -13.709613    -19.202305    -4.593650    8.792165    19.760416    -10.493249    2.738895    9.835206    -17.674976    0.000000    0.000000    0.000000    
13.579165    157.831818    -92.665840    -2.863857    -2.998014    31.919865    -2.320544    -2.686067    -5.232675    -0.667288    -1.554830    -1.737260    17.844088    -12.931033    -0.643960    5.763232    16.385410    -5.402499    14.673552    0.790017    -29.266956    -23.336817    19.463131    -77.337784    -13.079130    -8.437223    -80.888397    16.685881    -19.925320    -4.350564    -15.238542    -12.383382    -4.400835    25.757521    -28.869213    73.123421    -3.989915    -13.516578    23.418224    -0.493592    -12.843782    30.829321    14.933091    5.103156    2.539873    -8.824130    25.409754    -17.441729    1.202845    -26.352440    42.000675    0.000000    0.000000    0.000000    -13.407975    -19.115723    -4.564530    8.716063    19.498846    -10.568658    2.725848    10.013294    -17.758215    0.000000    0.000000    0.000000    
13.253503    157.923355    -92.641075    -3.028583    -3.082208    32.102966    -2.395522    -2.584648    -5.148092    -0.953230    -1.643167    -1.713828    17.678902    -12.894614    -0.788322    6.021419    16.154911    -5.490770    14.603805    0.817069    -29.208036    -23.478430    19.392069    -77.146996    -13.263551    -8.089317    -80.875061    17.020653    -19.774857    -4.487805    -15.350947    -12.430376    -4.432488    25.709078    -28.793798    73.075478    -4.036363    -13.574326    23.396694    -0.402062    -12.868503    30.849068    15.249079    5.025998    2.525970    -8.787750    25.243597    -17.140503    0.887309    -26.229530    41.517521    0.000000    0.000000    0.000000    -13.109191    -19.021307    -4.516422    8.661468    19.245869    -10.642412    2.730194    10.189078    -17.883097    0.000000    0.000000    0.000000    
12.942303    158.009827    -92.616653    -3.181661    -3.173116    32.300751    -2.518391    -2.458806    -5.095551    -1.269486    -1.727373    -1.699652    17.879885    -12.924077    -0.807014    5.958878    15.997073    -5.560292    14.766510    0.874893    -29.104769    -23.682257    19.346983    -77.102768    -13.357652    -7.925018    -80.797676    16.577681    -19.663269    -4.479729    -15.208103    -12.470602    -4.407591    25.505264    -28.774624    73.044899    -4.087172    -13.636347    23.310349    -0.374403    -12.915994    30.814259    15.551043    4.938852    2.472267    -8.729098    25.136236    -17.196085    0.716160    -26.146912    41.408398    0.000000    0.000000    0.000000    -12.836455    -18.904001    -4.461353    8.633672    18.984055    -10.765264    2.711458    10.349236    -17.960119    0.000000    0.000000    0.000000    
12.644863    158.089066    -92.583084    -3.310488    -3.273868    32.487236    -2.597039    -2.369637    -4.991011    -1.566752    -1.761647    -1.669881    17.771782    -12.946513    -0.886483    6.115374    15.850535    -5.609171    14.672602    0.850343    -29.121271    -23.778223    19.334208    -76.850761    -13.518435    -7.696821    -80.837112    16.497452    -19.575569    -4.426797    -15.258092    -12.458444    -4.419691    25.422937    -28.773418    73.037041    -4.171865    -13.677192    23.243715    -0.285636    -12.918579    30.826880    15.833540    4.886810    2.423954    -8.715556    24.918787    -17.249491    0.616914    -25.975992    41.420685    0.000000    0.000000    0.000000    -12.584320    -18.761673    -4.418543    8.611381    18.719387    -10.868172    2.704275    10.493133    -18.036510    0.000000    0.000000    0.000000    
12.345104    158.161804    -92.554710    -3.458027    -3.360076    32.697666    -2.687415    -2.277466    -4.921520    -1.813117    -1.859041    -1.652137    17.570290    -12.922002    -1.118384    6.359788    15.746115    -5.786245    14.594918    0.908406    -29.114111    -23.809942    19.355997    -76.671303    -13.799834    -7.753146    -80.872284    16.384083    -19.896729    -4.674959    -15.367529    -12.426961    -4.392955    25.435884    -28.761938    73.033478    -4.242738    -13.722416    23.172266    -0.286728    -12.952890    30.898647    16.124395    4.788331    2.357016    -8.634438    24.865053    -17.723867    0.641110    -25.934231    41.720261    0.000000    0.000000    0.000000    -12.331291    -18.630299    -4.457053    8.563035    18.450705    -10.944237    2.684267    10.629745    -18.079035    0.000000    0.000000    0.000000    
12.062334    158.235855    -92.517769    -3.599901    -3.462448    32.876202    -2.237421    -2.475878    -5.394809    -2.644684    -1.543576    -1.817804    16.871889    -12.730626    -1.010266    7.193375    15.561263    -5.442059    14.180636    0.895571    -28.135029    -23.331779    19.594660    -76.298325    -13.687110    -7.602123    -81.389587    16.606266    -19.735561    -4.413149    -15.663133    -12.547789    -3.589520    25.996895    -28.875664    73.284363    -4.451110    -13.608829    22.965759    -0.382775    -12.830851    30.792002    16.417583    4.734875    2.307690    -8.591205    24.746902    -17.797258    0.516971    -25.849159    41.645416    0.000000    0.000000    0.000000    -12.069009    -18.487644    -4.500184    8.508732    18.184418    -11.036614    2.660610    10.780150    -18.073879    0.000000    0.000000    0.000000    
11.723262    158.296021    -92.490128    -3.809733    -3.527048    33.086105    -1.780454    -2.741345    -5.916362    -3.454603    -1.222030    -1.994799    16.118080    -12.550142    -0.915843    8.096094    15.378803    -5.098491    13.797548    0.851020    -27.115240    -23.138424    19.655334    -75.869476    -13.950395    -7.127799    -81.807610    16.947670    -19.570610    -4.193717    -16.003454    -12.713380    -2.762020    26.699915    -29.013659    73.557327    -4.589586    -13.528208    22.779608    -0.417529    -12.739078    30.702322    16.769600    4.550287    2.302703    -8.530834    24.717310    -17.889820    0.374324    -25.806484    41.524330    0.000000    0.000000    0.000000    -11.769932    -18.419353    -4.632068    8.440157    17.925514    -11.115565    2.598948    10.933484    -18.042118    0.000000    0.000000    0.000000    
